<?xml version="1.0"?>
<svg xmlns="http://www.w3.org/2000/svg" height="512px" viewBox="0 -32 511.98172 511" width="512px"><path d="m449.949219 270.761719c-4.628907-1.636719-9.417969-2.90625-14.328125-3.773438-42.851563-7.535156-86.117188 18.074219-100.984375 58.796875-3.648438 10.003906-5.511719 20.625-5.511719 31.269532 0 50.414062 41.015625 91.425781 91.429688 91.425781 50.414062 0 91.425781-41.011719 91.425781-91.425781.011719-38.820313-26.175781-73.601563-62.03125-86.292969zm25.46875 95.433593h-45.710938v45.714844c0 5.054688-4.097656 9.144532-9.144531 9.144532s-9.144531-4.089844-9.144531-9.144532v-45.714844h-45.710938c-5.046875 0-9.144531-4.085937-9.144531-9.140624 0-5.058594 4.097656-9.144532 9.144531-9.144532h45.710938v-45.714844c0-5.054687 4.097656-9.140624 9.144531-9.140624s9.144531 4.085937 9.144531 9.140624v45.714844h45.710938c5.046875 0 9.144531 4.085938 9.144531 9.144532 0 5.054687-4.097656 9.140624-9.144531 9.140624zm0 0" fill="#FFFFFF"/><path d="m341.203125 432.535156c-30.765625-32.539062-39.160156-82.328125-19.503906-123.035156 18.140625-37.566406 57.125-62.160156 98.863281-62.160156 4.058594 0 8.054688.253906 12.003906.695312.566406.0625 1.132813.191406 1.710938.265625 3.511718.4375 6.976562 1.03125 10.375 1.800781.136718.027344.277344.035157.414062.070313.0625-1.132813.117188-2.257813.164063-3.390625.273437-7.386719 3.28125-14.070312 8.476562-18.84375 7.777344-7.148438 26.824219-26.148438 35.609375-47.960938 4.691406-11.632812-1.957031-23.433593-10.632812-29.964843-7.121094-5.355469-11.246094-13.199219-11.320313-21.519531-.253906-29.804688-6.445312-60.820313-24.976562-84.902344-13.230469-17.179688-31.84375-29.117188-52.351563-35.765625-20.242187-6.566407-42.414062-7.7812502-63.570312-7.121094-16.429688.511719-32.980469 3.445313-48.367188 9.324219-10.292968 3.941406-20.066406 9.261718-28.761718 16.0625-33.65625 27.53125-40.953126 70.765625-42.167969 95.261718-.089844 2.320313-.199219 4.617188-.230469 7.101563 0 .175781-.0625.332031-.0625.503906-.226562 8.210938-4.195312 15.808594-11.035156 20.882813-30.65625 22.71875 6.34375 61.230468 24.769531 78.097656 5.183594 4.753906 8.199219 11.449219 8.472656 18.835938 1.785157 48.347656 21.128907 65.050781 32.496094 70.699218 11.609375 5.78125 18.824219 16.667969 18.824219 28.425782 0 16.640624-16.796875 27.464843-24.867188 32.660156-.90625.574218-1.914062.996094-2.964844 1.242187l-56.785156 12.644531c-19.703125 4.390626-33.460937 21.550782-33.460937 41.726563v14.308594h197.648437c-.109375-.070313-.191406-.152344-.300781-.226563-3.355469-2.25-6.566406-4.691406-9.648437-7.289062-.847657-.710938-1.636719-1.496094-2.457032-2.238282-2.222656-1.984374-4.34375-4.050781-6.363281-6.191406zm0 0" fill="#FFFFFF"/><path d="m191.816406 374.589844c7.542969-1.683594 15.085938-3.355469 22.636719-5.039063 9.601563-2.136719 19.585937-2.871093 28.902344-6.1875 6.609375-2.351562 18.761719-9.246093 18.761719-17.464843 0-4.84375-3.246094-9.34375-8.675782-12.050782-15.003906-7.460937-40.484375-28.617187-42.625-86.398437-.09375-2.46875-.996094-4.609375-2.558594-6.042969-26.441406-24.246094-64.066406-71.152344-27.039062-103.023438 2.011719-1.726562 4.199219-3.328124 5.644531-5.558593 3.234375-5.027344 1.953125-12.09375 2.355469-17.792969.476562-6.746094 1.191406-13.464844 2.296875-20.140625 1.9375-11.628906 5-23.09375 9.507813-34 7.324218-17.746094 18.5625-33.730469 33.34375-46.164063 3.292968-2.898437 6.75-5.714843 10.523437-8.328124-24.601563-7.023438-45.121094-5.84375-45.355469-5.816407-.386718.019531-.796875.019531-1.179687 0-.550781-.0625-56.175781-3.136719-93.972657 32.328125-23.816406 22.355469-35.902343 55.472656-35.902343 98.441406 0 99.730469-25.289063 138.652344-46.492188 153.730469-.15625.109375-.429687.300781-.402343.941407.007812.246093.109374 1.097656.953124 1.609374 19.464844 11.691407 50.695313 24.59375 88.914063 19.773438.5-.0625.996094-.089844 1.496094-.089844 4.910156 0 9.308593 3.015625 11.007812 7.726563 1.875 5.15625-.042969 10.84375-4.671875 13.8125 0 0-97.953125 56.652343-97.953125 56.660156-13.160156 7.605469-21.332031 21.777344-21.332031 36.972656v11.695313c.0078125 7.878906 6.425781 14.296875 14.308594 14.296875h129.746094s0-14.296875 0-14.371094c-.019532-28.78125 19.59375-53.246094 47.761718-59.519531zm0 0" fill="#FFFFFF"/></svg>
