<?xml version="1.0" encoding="iso-8859-1"?>
<!-- Generator: Adobe Illustrator 18.0.0, SVG Export Plug-In . SVG Version: 6.00 Build 0)  -->
<!DOCTYPE svg PUBLIC "-//W3C//DTD SVG 1.1//EN" "http://www.w3.org/Graphics/SVG/1.1/DTD/svg11.dtd">
<svg xmlns="http://www.w3.org/2000/svg" xmlns:xlink="http://www.w3.org/1999/xlink" version="1.1" id="Capa_1" x="0px" y="0px" viewBox="0 0 464.927 464.927" style="enable-background:new 0 0 464.927 464.927;" xml:space="preserve" width="512px" height="512px">
<g>
	<path d="M424.32,0H40.605C18.176,0,0.001,18.178,0.001,40.605v383.716c0,22.428,18.175,40.605,40.605,40.605   H424.32c22.43,0,40.607-18.178,40.607-40.605V247.81V123.254V40.605C464.926,18.178,446.75,0,424.32,0z M433.931,424.321   c0,5.297-4.315,9.61-9.611,9.61H278.804V288.415c0-5.297,4.313-9.611,9.61-9.611h145.517V424.321z M288.414,247.81   c-22.429,0-40.605,18.177-40.605,40.605v145.517h-93.568V163.858c0-5.297,4.305-9.609,9.602-9.609h270.088v93.561H288.414z    M163.843,123.254c-22.422,0-40.597,18.177-40.597,40.604v270.073H40.605c-5.297,0-9.61-4.313-9.61-9.61V40.605   c0-5.297,4.313-9.61,9.61-9.61H424.32c5.297,0,9.611,4.314,9.611,9.61v82.648H163.843z" fill="#FFFFFF"/>
	<circle cx="68.354" cy="67.015" r="19.372" fill="#FFFFFF"/>
	<circle cx="190.397" cy="188.483" r="19.372" fill="#FFFFFF"/>
	<circle cx="313.461" cy="313.463" r="19.372" fill="#FFFFFF"/>
</g>
<g>
</g>
<g>
</g>
<g>
</g>
<g>
</g>
<g>
</g>
<g>
</g>
<g>
</g>
<g>
</g>
<g>
</g>
<g>
</g>
<g>
</g>
<g>
</g>
<g>
</g>
<g>
</g>
<g>
</g>
</svg>
