<?xml version="1.0"?>
<svg xmlns="http://www.w3.org/2000/svg" height="512px" viewBox="0 -31 464 463" width="512px"><g><path d="m248 152.5c16.140625-12.101562 20.730469-34.335938 10.699219-51.835938-10.035157-17.503906-31.539063-24.777343-50.140625-16.964843 24.390625 14.347656 39.386718 40.507812 39.441406 68.800781zm0 0" data-original="#000000" class="active-path" data-old_color="#EFECEC" fill="#FFFFFF"/><path d="m69.960938 158.261719c5.78125 2.636719 12.375 2.855469 18.320312.613281-.167969-1.96875-.28125-4.054688-.28125-6.375.042969-11.765625 2.695312-23.375 7.769531-33.992188-4.332031-3.882812-9.953125-6.023437-15.769531-6.007812-11.242188.039062-20.949219 7.875-23.359375 18.855469-2.40625 10.980469 3.128906 22.164062 13.320313 26.90625zm0 0" data-original="#000000" class="active-path" data-old_color="#EFECEC" fill="#FFFFFF"/><path d="m214.398438 217.554688c4.625 3.003906 8.785156 6.664062 12.34375 10.875 3.914062 2.648437 8.53125 4.070312 13.257812 4.070312 12.984375-.003906 23.605469-10.355469 23.9375-23.335938.335938-12.980468-9.738281-23.863281-22.707031-24.535156-5.835938 13.175782-15.101563 24.546875-26.832031 32.925782zm0 0" data-original="#000000" class="active-path" data-old_color="#EFECEC" fill="#FFFFFF"/><path d="m123.359375 243.324219c-6.160156-3.292969-13.457031-3.730469-19.96875-1.195313-6.511719 2.53125-11.589844 7.78125-13.910156 14.371094h39.152343c.347657-2.484375.863282-4.9375 1.542969-7.351562-1.875-2.363282-4.191406-4.339844-6.816406-5.824219zm0 0" data-original="#000000" class="active-path" data-old_color="#EFECEC" fill="#FFFFFF"/><path d="m184 224.5c-19 .019531-35.375 13.386719-39.199219 32h78.398438c-3.824219-18.613281-20.199219-31.980469-39.199219-32zm0 0" data-original="#000000" class="active-path" data-old_color="#EFECEC" fill="#FFFFFF"/><path d="m160 392.5c22.089844 0 40-17.910156 40-40s-17.910156-40-40-40-40 17.910156-40 40c.027344 22.082031 17.917969 39.972656 40 40zm-8-48h16v16h-16zm0 0" data-original="#000000" class="active-path" data-old_color="#EFECEC" fill="#FFFFFF"/><path d="m439.359375 344.5h16.640625c4.417969 0 8-3.582031 8-8v-64h-120c-8.835938 0-16-7.164062-16-16v-72c0-8.835938 7.164062-16 16-16h36.6875l-13.597656-13.601562c-1.503906-1.53125-3.558594-2.394532-5.707032-2.398438h-81.382812v112c0 4.417969-3.582031 8-8 8h-192v64c0 4.417969 3.582031 8 8 8h16.640625c3.953125-27.535156 27.542969-47.976562 55.359375-47.976562s51.40625 20.441406 55.359375 47.976562h113.28125c3.953125-27.535156 27.542969-47.976562 55.359375-47.976562s51.40625 20.441406 55.359375 47.976562zm-103.359375-40h-32v-16h32zm0 0" data-original="#000000" class="active-path" data-old_color="#EFECEC" fill="#FFFFFF"/><path d="m344 256.5h120v-4.6875l-67.3125-67.3125h-52.6875zm0 0" data-original="#000000" class="active-path" data-old_color="#EFECEC" fill="#FFFFFF"/><path d="m76.289062 246.613281c6.765626-13.53125 20.582032-22.089843 35.710938-22.113281 3.972656.023438 7.917969.632812 11.710938 1.808594.957031-1.882813 1.757812-3.839844 2.402343-5.847656-16.863281-10.355469-29.300781-26.585938-34.914062-45.5625-7.816407 2.308593-16.15625 2.140624-23.878907-.46875-13.492187 8.105468-20.9375 23.402343-18.992187 39.023437s12.914063 28.625 27.984375 33.175781zm0 0" data-original="#000000" class="active-path" data-old_color="#EFECEC" fill="#FFFFFF"/><path d="m384 312.5c-22.089844 0-40 17.910156-40 40s17.910156 40 40 40 40-17.910156 40-40c-.027344-22.082031-17.917969-39.972656-40-40zm8 48h-16v-16h16zm0 0" data-original="#000000" class="active-path" data-old_color="#EFECEC" fill="#FFFFFF"/><path d="m104 152.5c0 2.855469.800781 10.398438.800781 10.398438 4.410157 27.003906 25.609375 48.152343 52.625 52.496093 11.789063-6.59375 25.605469-8.589843 38.78125-5.597656 2.628907-1.242187 5.164063-2.679687 7.578125-4.296875 21.972656-14.75 32.601563-41.507812 26.738282-67.316406-5.859376-25.808594-27.007813-45.347656-53.199219-49.15625-26.191407-3.808594-52.023438 8.898437-64.996094 31.96875-5.476563 9.59375-8.347656 20.457031-8.328125 31.503906zm64 8c-11.675781.023438-21.664062-8.378906-23.644531-19.886719-1.976563-11.507812 4.632812-22.761719 15.644531-26.640625v-9.472656h16v9.472656c9.554688 3.378906 15.957031 12.394532 16 22.527344h-16c0-4.417969-3.582031-8-8-8s-8 3.582031-8 8 3.582031 8 8 8c11.675781-.023438 21.664062 8.378906 23.644531 19.886719 1.976563 11.507812-4.632812 22.761719-15.644531 26.640625v9.472656h-16v-9.472656c-9.554688-3.378906-15.957031-12.394532-16-22.527344h16c0 4.417969 3.582031 8 8 8s8-3.582031 8-8-3.582031-8-8-8zm0 0" data-original="#000000" class="active-path" data-old_color="#EFECEC" fill="#FFFFFF"/><path d="m0 320.5h40v16h-40zm0 0" data-original="#000000" class="active-path" data-old_color="#EFECEC" fill="#FFFFFF"/><path d="m16 288.5h24v16h-24zm0 0" data-original="#000000" class="active-path" data-old_color="#EFECEC" fill="#FFFFFF"/><path d="m24 256.5h16v16h-16zm0 0" data-original="#000000" class="active-path" data-old_color="#EFECEC" fill="#FFFFFF"/><path d="m168 32.5h128v16h-128zm0 0" data-original="#000000" class="active-path" data-old_color="#EFECEC" fill="#FFFFFF"/><path d="m136 32.5h16v16h-16zm0 0" data-original="#000000" class="active-path" data-old_color="#EFECEC" fill="#FFFFFF"/><path d="m120 .5h144v16h-144zm0 0" data-original="#000000" class="active-path" data-old_color="#EFECEC" fill="#FFFFFF"/><path d="m88 .5h16v16h-16zm0 0" data-original="#000000" class="active-path" data-old_color="#EFECEC" fill="#FFFFFF"/><path d="m0 384.5h464v16h-464zm0 0" data-original="#000000" class="active-path" data-old_color="#EFECEC" fill="#FFFFFF"/></g> </svg>
