<?xml version="1.0"?>
<svg xmlns="http://www.w3.org/2000/svg" xmlns:xlink="http://www.w3.org/1999/xlink" version="1.1" id="Capa_1" x="0px" y="0px" viewBox="0 0 381.39 381.39" style="enable-background:new 0 0 381.39 381.39;" xml:space="preserve" width="512px" height="512px" class=""><g><g>
	<g>
		<g>
			<g>
				<path d="M349.607,0H31.782C14.239,0,0,14.239,0,31.782v317.825c0,17.544,14.239,31.782,31.782,31.782      h317.825c17.544,0,31.782-14.239,31.782-31.782V31.782C381.39,14.239,367.151,0,349.607,0z M349.607,349.607H31.782V31.782      h317.825V349.607z" data-original="#010002" class="active-path" data-old_color="#c62222" fill="#c62222"/>
				<path d="M127.13,286.042h127.13c17.544,0,31.782-14.239,31.782-31.782V127.13      c0-17.544-14.239-31.782-31.782-31.782H127.13c-17.544,0-31.782,14.239-31.782,31.782v127.13      C95.347,271.804,109.586,286.042,127.13,286.042z" data-original="#010002" class="active-path" data-old_color="#c62222" fill="#c62222"/>
			</g>
		</g>
	</g>
</g></g> </svg>
