<svg height="480pt" viewBox="0 0 480 480" width="480pt" xmlns="http://www.w3.org/2000/svg"><path d="m475.0625 96.605469-91.0625-37.679688v-34.925781c0-4.417969-3.582031-8-8-8h-32c-4.417969 0-8 3.582031-8 8v15.0625l-92.945312-38.457031c-1.957032-.808594-4.152344-.808594-6.109376 0l-232 96c-2.992187 1.238281-4.945312 4.15625-4.945312 7.394531v32c0 2.667969 1.332031 5.164062 3.554688 6.648438 2.21875 1.484374 5.035156 1.761718 7.5.742187l228.945312-94.734375 228.945312 94.734375c2.464844 1.019531 5.28125.742187 7.5-.742187 2.222657-1.484376 3.554688-3.980469 3.554688-6.648438v-32c0-3.238281-1.949219-6.152344-4.9375-7.394531zm-123.0625-64.605469h16v20.285156l-16-6.597656zm112 92-220.945312-91.394531c-1.957032-.808594-4.152344-.808594-6.109376 0l-220.945312 91.394531v-14.65625l224-92.6875 224 92.6875zm0 0"/><path d="m200 320h-112c-13.253906 0-24 10.742188-24 24v112c0 13.253906 10.746094 24 24 24h112c13.253906 0 24-10.746094 24-24v-112c0-13.257812-10.746094-24-24-24zm8 136c0 4.417969-3.582031 8-8 8h-112c-4.417969 0-8-3.582031-8-8v-112c0-4.417969 3.582031-8 8-8h112c4.417969 0 8 3.582031 8 8zm0 0"/><path d="m200 128h-112c-13.253906 0-24 10.742188-24 24v112c0 13.253906 10.746094 24 24 24h112c13.253906 0 24-10.746094 24-24v-112c0-13.257812-10.746094-24-24-24zm8 136c0 4.417969-3.582031 8-8 8h-112c-4.417969 0-8-3.582031-8-8v-112c0-4.417969 3.582031-8 8-8h112c4.417969 0 8 3.582031 8 8zm0 0"/><path d="m392 320h-112c-13.253906 0-24 10.742188-24 24v112c0 13.253906 10.746094 24 24 24h112c13.253906 0 24-10.746094 24-24v-112c0-13.257812-10.746094-24-24-24zm8 136c0 4.417969-3.582031 8-8 8h-112c-4.417969 0-8-3.582031-8-8v-112c0-4.417969 3.582031-8 8-8h112c4.417969 0 8 3.582031 8 8zm0 0"/><path d="m392 128h-112c-13.253906 0-24 10.742188-24 24v112c0 13.253906 10.746094 24 24 24h112c13.253906 0 24-10.746094 24-24v-112c0-13.257812-10.746094-24-24-24zm8 136c0 4.417969-3.582031 8-8 8h-112c-4.417969 0-8-3.582031-8-8v-112c0-4.417969 3.582031-8 8-8h112c4.417969 0 8 3.582031 8 8zm0 0"/></svg>