<?xml version="1.0" encoding="iso-8859-1"?>
<!-- Generator: Adobe Illustrator 19.0.0, SVG Export Plug-In . SVG Version: 6.00 Build 0)  -->
<svg version="1.1" id="Capa_1" xmlns="http://www.w3.org/2000/svg" xmlns:xlink="http://www.w3.org/1999/xlink" x="0px" y="0px"
	 viewBox="0 0 512 512" style="enable-background:new 0 0 512 512;" xml:space="preserve">
<g>
	<g>
		<path d="M272.429,163.438c-1.774-3.743-6.247-5.337-9.99-3.562l-40.749,19.327c-3.743,1.775-5.337,6.248-3.562,9.99
			c1.282,2.704,5.081,5.773,9.989,3.562l40.749-19.327C272.609,171.653,274.203,167.18,272.429,163.438z"/>
	</g>
</g>
<g>
	<g>
		<path d="M321.154,266.164c-1.774-3.743-6.247-5.337-9.99-3.563l-40.749,19.327c-3.743,1.775-5.337,6.248-3.563,9.99
			c1.283,2.705,5.082,5.774,9.99,3.563l40.749-19.327C321.335,274.379,322.929,269.906,321.154,266.164z"/>
	</g>
</g>
<g>
	<g>
		<path d="M345.516,317.527c-1.774-3.744-6.246-5.338-9.99-3.563l-40.749,19.327c-3.743,1.775-5.337,6.248-3.563,9.99
			c1.283,2.705,5.082,5.774,9.99,3.563l40.749-19.327C345.696,325.743,347.29,321.27,345.516,317.527z"/>
	</g>
</g>
<g>
	<g>
		<path d="M369.88,368.888c-1.774-3.742-6.247-5.336-9.99-3.562l-40.749,19.327c-3.743,1.775-5.337,6.248-3.563,9.99
			c1.283,2.705,5.082,5.774,9.99,3.562l40.749-19.327C370.06,377.104,371.654,372.631,369.88,368.888z"/>
	</g>
</g>
<g>
	<g>
		<path d="M508.677,156.152l-48.17-101.556c-7.92-16.699-27.953-23.841-44.653-15.92l-32.772,15.549
			c-3.742,1.775-5.337,6.249-3.561,9.991c1.776,3.742,6.25,5.337,9.991,3.561l32.772-15.548c9.228-4.378,20.293-0.431,24.67,8.796
			l48.17,101.556c4.6,9.698,0.453,21.331-9.246,25.931c-9.701,4.599-21.332,0.452-25.931-9.246l-30.823-64.981
			c-5.119-10.94-15.999-14.974-26.728-9.53l-17.305,8.208l-19.9-41.955c-2.39-4.33-5.841-5.69-9.991-3.562L55.126,209.777
			c-9.493,4.503-14.997,13.815-14.363,24.302c0.633,10.487,7.217,19.069,17.183,22.397l45.717,15.267
			c12.851,4.292,23.551,13.773,29.357,26.015l70.796,149.259c5.934,12.509,16.384,21.959,29.426,26.609
			c5.691,2.029,22.763,6.325,39.624-1.991l183.662-87.115c25.824-12.249,36.869-43.225,24.619-69.048L391.52,126.514l17.305-8.208
			c3.2-1.516,5.156-0.415,6.747,2.406l30.823,64.982c13.823,27.049,41.158,18.625,45.913,16.37
			C509.478,193.919,516.822,173.323,508.677,156.152z M439.75,263.203c0,0,6.331,11.192-32.423,45.113
			c-3.117,2.728-3.755,7.309-1.165,10.542c2.589,3.233,7.31,3.755,10.542,1.165c8.629-6.911,24.527-20.875,32.95-35.94l17.938,37.82
			c8.705,18.35,0.857,40.363-17.494,49.067l-183.662,87.115c-8.89,4.216-18.889,4.719-28.157,1.415
			c-9.268-3.304-16.693-10.02-20.91-18.909l-30.62-64.554c14.074,7.261,37.206,12.794,65.048,10.134
			c48.032-4.59,97.305-22.107,138.889-47.878c3.521-2.182,4.606-6.805,2.424-10.326c-2.182-3.521-6.805-4.608-10.326-2.424
			c-22.996,14.251-70.799,39.14-132.574,45.712c-41.633,4.43-71.789-10.769-83.631-37.742c-11.842-26.972,17.525-60.82,54.968-69.61
			c21.089-4.951,76.38-11.061,125.077-12.266C416.832,249.897,437.115,258.866,439.75,263.203z M429.84,242.307
			c-15.777-4.155-41.5-6.707-83.586-5.668c-32.409,0.802-66.377,3.613-92.474,6.862l39.449-18.71
			c3.743-1.775,5.337-6.248,3.563-9.99c-1.774-3.743-6.247-5.337-9.99-3.563l-40.749,19.327c-3.743,1.775-5.337,6.248-3.563,9.99
			c0.71,1.497,2.192,3.1,4.204,3.864c-11.974,1.618-21.869,3.305-28.573,4.879c-21.645,5.081-40.593,16.198-53.353,31.304
			c-5.912,6.998-10.191,14.481-12.775,22.152c-0.002,0-12.238-37.599-43.58-45.239l-45.717-15.267
			c-6.073-2.028-6.863-7.458-6.961-9.073c-0.097-1.616,0.034-7.102,5.819-9.846L354.852,84.212L429.84,242.307z"/>
	</g>
</g>
<g>
	<g>
		<path d="M66.18,326.86c-7.953-21.549-17.518-32.477-28.427-32.477c-10.909,0-20.473,10.927-28.429,32.478
			C3.921,341.498,0,359.457,0,369.562c0,20.817,16.935,37.754,37.753,37.754c20.817,0,37.753-16.936,37.753-37.754
			C75.505,359.457,71.584,341.498,66.18,326.86z M37.753,392.316C25.206,392.316,15,382.109,15,369.562
			c0-7.255,3.141-23.269,8.396-37.508c6.323-17.129,12.402-22.671,14.356-22.671s8.033,5.542,14.356,22.671
			c5.256,14.238,8.396,30.253,8.396,37.508C60.506,382.109,50.299,392.316,37.753,392.316z"/>
	</g>
</g>
<g>
	<g>
		<path d="M108.551,408.222c-17.205,0-31.204,13.998-31.204,31.204c0,17.206,13.998,31.204,31.204,31.204
			c17.205,0,31.204-13.998,31.204-31.204C139.754,422.219,125.756,408.222,108.551,408.222z M108.551,455.628
			c-8.935,0-16.203-7.268-16.203-16.203c0-8.934,7.269-16.203,16.203-16.203c8.934,0,16.203,7.269,16.203,16.203
			C124.754,448.36,117.485,455.628,108.551,455.628z"/>
	</g>
</g>
<g>
</g>
<g>
</g>
<g>
</g>
<g>
</g>
<g>
</g>
<g>
</g>
<g>
</g>
<g>
</g>
<g>
</g>
<g>
</g>
<g>
</g>
<g>
</g>
<g>
</g>
<g>
</g>
<g>
</g>
</svg>
