<svg height="503pt" viewBox="-1 0 503 503.5291" width="503pt" xmlns="http://www.w3.org/2000/svg"><path d="m313.585938 159.167969c15.550781-3.304688 31.152343-6.285157 46.582031-8.164063l9.296875-41.472656c-15.269532 2.148438-30.855469 5.390625-46.707032 8.804688zm0 0"/><path d="m125.261719.378906c-1.128907-.25-2.277344-.37499975-3.433594-.378906-7.324219.0195312-13.660156 5.097656-15.269531 12.242188l-105.742188 471.5c-1.515625 5.5625.144532 11.511718 4.328125 15.484374 4.183594 3.96875 10.210938 5.320313 15.691407 3.515626 5.476562-1.804688 9.519531-6.476563 10.519531-12.15625l105.726562-471.488282c1.886719-8.429687-3.398437-16.800781-11.820312-18.71875zm0 0"/><path d="m261.003906 112.011719c15.269532-2.136719 30.863282-5.390625 46.707032-8.804688l9.164062-40.832031c-15.558594 3.296875-31.160156 6.332031-46.59375 8.191406zm0 0"/><path d="m128.878906 137.953125c10.574219 12.070313 23.726563 21.605469 38.480469 27.90625l9.46875-42.214844c-14.550781-5.667969-27.855469-14.121093-39.171875-24.882812zm0 0"/><path d="m184.515625 171.464844c14.496094 3.09375 29.367187 4.019531 44.132813 2.75l9.402343-41.949219c-14.753906.886719-29.558593-.238281-44.011719-3.339844zm0 0"/><path d="m247.519531 172.148438c15.269531-2.144532 30.855469-5.390626 46.710938-8.8125l9.152343-40.832032c-15.550781 3.304688-31.152343 6.285156-46.582031 8.164063zm0 0"/><path d="m327.070312 99.039062c15.554688-3.304687 31.148438-6.285156 46.582032-8.164062l9.289062-41.472656c-15.273437 2.140625-30.847656 5.390625-46.710937 8.804687zm0 0"/><path d="m401.804688 47.347656-9.398438 41.921875c14.757812-.882812 29.5625.242188 44.015625 3.339844l9.519531-42.496094c-14.496094-3.09375-29.371094-4.027343-44.136718-2.765625zm0 0"/><path d="m378.933594 149.40625c14.753906-.882812 29.5625.242188 44.015625 3.339844l9.539062-42.539063c-14.5-3.070312-29.371093-3.976562-44.132812-2.695312zm0 0"/><path d="m207.546875 68.761719-9.546875 42.574219c14.496094 3.074218 29.367188 3.984374 44.128906 2.695312l9.40625-41.9375c-14.746094.882812-29.542968-.238281-43.988281-3.332031zm0 0"/><path d="m180.574219 189.0625-9.539063 42.496094c14.496094 3.085937 29.367188 4.007812 44.128906 2.738281l9.40625-41.929687c-14.746093.890624-29.546874-.21875-43.996093-3.304688zm0 0"/><path d="m101.878906 258.390625c10.59375 12.039063 23.765625 21.542969 38.535156 27.800781l9.484376-42.28125c-14.546876-5.667968-27.851563-14.117187-39.164063-24.882812zm0 0"/><path d="m440.15625 158.027344c14.585938 5.691406 27.917969 14.167968 39.253906 24.964844l8.75-39.210938c-10.585937-12.097656-23.757812-21.660156-38.542968-27.96875zm0 0"/><path d="m115.398438 198.082031c10.574218 12.070313 23.730468 21.609375 38.488281 27.90625l9.46875-42.214843c-14.550781-5.671876-27.855469-14.125-39.171875-24.882813zm0 0"/><path d="m413.175781 278.367188c14.625 5.652343 28.003907 14.113281 39.386719 24.898437l8.730469-39.109375c-10.597657-12.144531-23.800781-21.742188-38.625-28.070312zm0 0"/><path d="m474.722656 203.964844c-10.601562-12.125-23.804687-21.703125-38.625-28.015625l-9.457031 42.214843c14.601563 5.691407 27.953125 14.183594 39.296875 25zm0 0"/><path d="m300.101562 219.308594c15.550782-3.308594 31.152344-6.289063 46.574219-8.167969l9.316407-41.472656c-15.269532 2.140625-30.855469 5.390625-46.707032 8.804687zm0 0"/><path d="m374.855469 167.605469-9.40625 41.9375c14.757812-.886719 29.5625.238281 44.015625 3.339843l9.539062-42.539062c-14.5-3.085938-29.378906-4.007812-44.148437-2.738281zm0 0"/><path d="m157.5625 291.679688c14.488281 3.09375 29.355469 4.03125 44.121094 2.773437l9.402344-41.921875c-14.753907.882812-29.558594-.242188-44.011719-3.339844zm0 0"/><path d="m463.117188 55.628906-9.476563 42.261719c14.5625 5.679687 27.878906 14.140625 39.199219 24.917969l8.777344-39.324219c-10.574219-12.0625-23.734376-21.585937-38.5-27.855469zm0 0"/><path d="m142.363281 77.816406c10.570313 12.070313 23.71875 21.609375 38.472657 27.917969l9.464843-42.148437c-14.546875-5.644532-27.855469-14.074219-39.171875-24.816407zm0 0"/><path d="m234.039062 232.269531c15.269532-2.140625 30.851563-5.390625 46.707032-8.804687l9.152344-40.824219c-15.546876 3.296875-31.148438 6.289063-46.582032 8.164063zm0 0"/><path d="m286.621094 279.433594c15.539062-3.296875 31.132812-6.285156 46.574218-8.144532l9.324219-41.527343c-15.269531 2.136719-30.855469 5.390625-46.710937 8.8125zm0 0"/><path d="m351.96875 269.664062c3.261719-.15625 6.503906-.261718 9.738281-.261718 11.515625-.066406 23.003907 1.15625 34.25 3.644531l9.546875-42.566406c-14.496094-3.085938-29.367187-4.011719-44.132812-2.75zm0 0"/><path d="m220.554688 292.40625c15.269531-2.148438 30.855468-5.390625 46.707031-8.804688l9.164062-40.832031c-15.558593 3.304688-31.152343 6.285157-46.582031 8.164063zm0 0"/></svg>