<svg height="480pt" viewBox="0 0 480 480" width="480pt" xmlns="http://www.w3.org/2000/svg"><path d="m472 416c4.417969 0 8-3.582031 8-8v-32c0-4.417969-3.582031-8-8-8h-48v-168c0-4.417969-3.582031-8-8-8h-40v-104c0-4.417969-3.582031-8-8-8h-72v-72c0-4.417969-3.582031-8-8-8h-96c-4.417969 0-8 3.582031-8 8v72h-72c-4.417969 0-8 3.582031-8 8v104h-40c-4.417969 0-8 3.582031-8 8v168h-48c-4.417969 0-8 3.582031-8 8v32c0 4.417969 3.582031 8 8 8h8v16h-8c-4.417969 0-8 3.582031-8 8v32c0 4.417969 3.582031 8 8 8h464c4.417969 0 8-3.582031 8-8v-32c0-4.417969-3.582031-8-8-8h-8v-16zm-64-48h-160v-160h48v56c0 4.417969 3.582031 8 8 8h48c4.417969 0 8-3.582031 8-8v-56h48zm-96-160h32v48h-32zm48-16h-112v-96h32v40c0 4.417969 3.582031 8 8 8h32c4.417969 0 8-3.582031 8-8v-40h32zm-64-96h16v32h-16zm-64-80h16v16h-16zm-32 0h16v24c0 4.417969 3.582031 8 8 8h32c4.417969 0 8-3.582031 8-8v-24h16v64h-80zm-32 80h16v32h-16zm-48 0h32v40c0 4.417969 3.582031 8 8 8h32c4.417969 0 8-3.582031 8-8v-40h32v96h-112zm16 112h32v48h-32zm-64 0h48v56c0 4.417969 3.582031 8 8 8h48c4.417969 0 8-3.582031 8-8v-56h48v160h-160zm-56 176h448v16h-448zm48 48v-16h352v16zm-32-16h16v16h-16zm432 48h-448v-16h448zm-16-32h-16v-16h16zm0 0"/></svg>