<?xml version="1.0"?>
<svg xmlns="http://www.w3.org/2000/svg" height="512px" viewBox="0 -12 456.07241 456" width="512px"><path d="m184.074219 408.035156c0 13.257813-10.746094 24-24 24-13.257813 0-24-10.742187-24-24 0-13.253906 10.742187-24 24-24 13.253906 0 24 10.746094 24 24zm0 0" fill="#FFFFFF"/><path d="m224.074219 144.035156h96c4.417969 0 8-3.582031 8-8 0-4.417968-3.582031-8-8-8h-96c-4.421875 0-8 3.582032-8 8 0 4.417969 3.578125 8 8 8zm0 0" fill="#FFFFFF"/><path d="m96.074219 32.035156h352v48h-352zm0 0" fill="#FFFFFF"/><path d="m88.074219 352.035156v16h-24c-4.421875 0-8-3.582031-8-8v-328c0-13.253906-10.746094-24-24-24h-2.21875c-3.621094-6.269531-11-9.328125-17.996094-7.453125s-11.859375 8.210938-11.859375 15.453125c0 7.242188 4.863281 13.582032 11.859375 15.457032s14.375-1.183594 17.996094-7.457032h2.21875c4.417969 0 8 3.582032 8 8v328c0 13.257813 10.742187 24 24 24h24v8c0 4.417969 3.578125 8 8 8h24.796875c0-.144531.097656-.269531.128906-.414062.496094-2.277344 1.1875-4.507813 2.074219-6.664063.308593-.800781.734375-1.472656 1.09375-2.21875.6875-1.457031 1.457031-2.871093 2.3125-4.238281.511719-.800781 1.097656-1.527344 1.65625-2.28125.882812-1.191406 1.828125-2.335938 2.832031-3.429688.671875-.710937 1.367188-1.375 2.085938-2.039062 1.070312-.996094 2.199218-1.925781 3.378906-2.785156.796875-.585938 1.597656-1.144532 2.398437-1.671875 1.292969-.789063 2.628907-1.507813 4-2.152344.847657-.410156 1.671875-.800781 2.550781-1.191406 1.554688-.59375 3.144532-1.089844 4.761719-1.480469.800781-.207031 1.550781-.480469 2.398438-.640625 5.015625-1.023437 10.1875-1.023437 15.203125 0 .796875.160156 1.597656.433594 2.398437.640625 1.617188.390625 3.207031.886719 4.761719 1.480469.878906.351562 1.703125.800781 2.550781 1.191406 1.371094.644531 2.707031 1.363281 4 2.152344.800781.527343 1.597657 1.085937 2.398438 1.671875 1.179687.859375 2.304687 1.789062 3.375 2.785156.722656.664062 1.417969 1.328125 2.089843 2.039062 1.003907 1.09375 1.949219 2.238282 2.832032 3.429688.558594.753906 1.144531 1.480469 1.65625 2.28125.851562 1.367188 1.625 2.78125 2.3125 4.238281.359375.746094.800781 1.449219 1.09375 2.21875.886718 2.15625 1.578125 4.386719 2.074218 6.664063 0 .144531.09375.269531.128907.414062h145.453125c0-.144531.097656-.269531.128906-.414062.496094-2.277344 1.1875-4.507813 2.074219-6.664063.308593-.800781.734375-1.472656 1.09375-2.21875.6875-1.457031 1.457031-2.871093 2.3125-4.238281.511719-.800781 1.097656-1.527344 1.65625-2.28125.882812-1.191406 1.828125-2.335938 2.832031-3.429688.671875-.710937 1.367188-1.375 2.085938-2.039062 1.070312-.996094 2.199218-1.925781 3.378906-2.785156.796875-.585938 1.597656-1.144532 2.398437-1.671875 1.292969-.789063 2.628907-1.507813 4-2.152344.847657-.410156 1.671875-.800781 2.550781-1.191406 1.570313-.59375 3.171876-1.089844 4.800782-1.480469.800781-.207031 1.554687-.480469 2.359375-.640625 5.015625-1.023437 10.1875-1.023437 15.203125 0 .796875.160156 1.597656.433594 2.359375.640625 1.628906.390625 3.230469.886719 4.800781 1.480469.878906.351562 1.703125.800781 2.550781 1.191406 1.371094.644531 2.707031 1.363281 4 2.152344.800781.527343 1.597657 1.085937 2.398438 1.671875 1.179687.859375 2.304687 1.789062 3.375 2.785156.722656.664062 1.417969 1.328125 2.089843 2.039062 1.003907 1.09375 1.949219 2.238282 2.832032 3.429688.558594.753906 1.144531 1.480469 1.65625 2.28125.851562 1.367188 1.625 2.78125 2.3125 4.238281.359375.746094.800781 1.449219 1.09375 2.21875.886718 2.15625 1.578125 4.386719 2.074218 6.664063 0 .144531.09375.269531.128907.414062h24.65625c4.417969 0 8-3.582031 8-8v-40zm0 0" fill="#FFFFFF"/><path d="m408.074219 408.035156c0 13.257813-10.746094 24-24 24-13.257813 0-24-10.742187-24-24 0-13.253906 10.742187-24 24-24 13.253906 0 24 10.746094 24 24zm0 0" fill="#FFFFFF"/><path d="m432.074219 336.035156v-240h-320v240zm-200-8h-16v-16h16zm32 0h-16v-16h16zm32 0h-16v-16h16zm32 0h-16v-16h16zm80-16h16v16h-16zm-32 0h16v16h-16zm-16 16h-16v-16h16zm-136-216h96c13.253906 0 24 10.746094 24 24 0 13.257813-10.746094 24-24 24h-96c-13.257813 0-24-10.742187-24-24 0-13.253906 10.742187-24 24-24zm-40 200h16v16h-16zm-32 0h16v16h-16zm-32 0h16v16h-16zm0 0" fill="#FFFFFF"/></svg>
