<svg height="512pt" viewBox="-111 0 512 512" width="512pt" xmlns="http://www.w3.org/2000/svg"><path d="m281.601562 477.867188h-273.066406c-4.710937 0-8.535156-3.824219-8.535156-8.535157v-187.730469c0-4.710937 3.824219-8.535156 8.535156-8.535156h273.066406c4.707032 0 8.53125 3.824219 8.53125 8.535156v187.730469c0 4.710938-3.824218 8.535157-8.53125 8.535157zm-264.535156-17.066407h256v-170.667969h-256zm0 0"/><path d="m51.199219 247.464844c-4.710938 0-8.53125-3.820313-8.53125-8.53125v-170.667969c0-4.710937 3.820312-8.53125 8.53125-8.53125 4.710937 0 8.535156 3.820313 8.535156 8.53125v170.667969c0 4.710937-3.824219 8.53125-8.535156 8.53125zm0 0"/><path d="m281.601562 512h-273.066406c-4.710937 0-8.535156-3.824219-8.535156-8.535156v-34.132813c0-4.710937 3.824219-8.53125 8.535156-8.53125h273.066406c4.707032 0 8.53125 3.820313 8.53125 8.53125v34.132813c0 4.710937-3.824218 8.535156-8.53125 8.535156zm-264.535156-17.066406h256v-17.066406h-256zm0 0"/><path d="m281.601562 290.132812h-273.066406c-4.710937 0-8.535156-3.824218-8.535156-8.53125v-273.066406c0-4.710937 3.824219-8.535156 8.535156-8.535156h273.066406c4.707032 0 8.53125 3.824219 8.53125 8.535156v273.066406c0 4.707032-3.824218 8.53125-8.53125 8.53125zm-264.535156-17.066406h256v-256h-256zm0 0"/><path d="m51.199219 418.132812c-4.710938 0-8.53125-3.824218-8.53125-8.53125v-85.335937c0-4.710937 3.820312-8.53125 8.53125-8.53125 4.710937 0 8.535156 3.820313 8.535156 8.53125v85.335937c0 4.707032-3.824219 8.53125-8.535156 8.53125zm0 0"/><path d="m187.734375 110.933594h-85.335937c-4.707032 0-8.53125-3.824219-8.53125-8.535156v-34.132813c0-4.710937 3.824218-8.53125 8.53125-8.53125h85.335937c4.710937 0 8.53125 3.820313 8.53125 8.53125v34.132813c0 4.710937-3.820313 8.535156-8.53125 8.535156zm-76.800781-17.066406h68.265625v-17.066407h-68.265625zm0 0"/><path d="m281.601562 435.199219h-68.269531c-4.710937 0-8.53125-3.820313-8.53125-8.53125 0-4.710938 3.820313-8.535157 8.53125-8.535157h68.269531c4.707032 0 8.53125 3.824219 8.53125 8.535157 0 4.710937-3.824218 8.53125-8.53125 8.53125zm0 0"/><path d="m281.601562 401.066406h-25.601562c-4.710938 0-8.535156-3.824218-8.535156-8.53125 0-4.710937 3.824218-8.535156 8.535156-8.535156h25.601562c4.707032 0 8.53125 3.824219 8.53125 8.535156 0 4.707032-3.824218 8.53125-8.53125 8.53125zm0 0"/></svg>