<svg width="24" height="24" viewBox="0 0 24 24" fill="none" xmlns="http://www.w3.org/2000/svg">
<path d="M21.8648 2.31441C21.5337 1.92497 21.0507 1.70171 20.5398 1.70171H18.8629V1.17717C18.8629 0.528095 18.3348 0 17.6858 0H6.31425C5.66512 0 5.13712 0.528095 5.13712 1.17713V1.70166H3.46007C2.94918 1.70166 2.46618 1.92497 2.13505 2.31436C1.8073 2.69972 1.66564 3.20588 1.7465 3.70299C2.18713 6.41237 3.89221 8.80595 6.31214 10.1189C6.53325 10.6505 6.78366 11.154 7.06251 11.6231C7.95324 13.122 9.06057 14.1578 10.2794 14.6588C10.4029 15.9077 9.57188 17.0909 8.32031 17.3728C8.31764 17.3735 8.31577 17.3744 8.31314 17.375C8.06888 17.4334 7.88705 17.6525 7.88705 17.9147V20.4629H6.85645C5.93761 20.4629 5.19009 21.2105 5.19009 22.1293V23.4445C5.19009 23.7513 5.43876 24 5.74556 24H18.3075C18.6143 24 18.8629 23.7513 18.8629 23.4445V22.1293C18.8629 21.2105 18.1154 20.4629 17.1966 20.4629H16.1659V17.9147C16.1659 17.6521 15.9834 17.4326 15.7385 17.3747C15.7362 17.3742 15.734 17.3734 15.7317 17.3728C14.4707 17.089 13.6381 15.8939 13.7746 14.6356C14.9721 14.1266 16.06 13.0999 16.9376 11.6232C17.2165 11.1541 17.4669 10.6505 17.688 10.1188C20.1078 8.80581 21.8128 6.41228 22.2534 3.70299C22.3343 3.20588 22.1926 2.69977 21.8648 2.31441ZM2.84301 3.52463C2.81413 3.34712 2.86321 3.17288 2.98124 3.03404C3.10101 2.89322 3.27548 2.81251 3.46002 2.81251H5.13707V3.83448C5.13707 5.43695 5.34159 6.98917 5.7292 8.40869C4.20595 7.20498 3.15716 5.4564 2.84301 3.52463ZM17.1966 21.5739C17.5029 21.5739 17.7521 21.8231 17.7521 22.1294V22.8892H6.30098V22.1294C6.30098 21.8231 6.55017 21.5739 6.85645 21.5739H17.1966ZM15.055 18.4702V20.463H8.99808V18.4702H15.055ZM10.4548 17.3593C10.5921 17.2082 10.7176 17.0443 10.8299 16.869C11.2001 16.2906 11.3944 15.6335 11.4031 14.9624C11.6004 14.9892 11.7995 15.0036 12.0003 15.0036C12.2188 15.0036 12.4353 14.9869 12.6497 14.9551C12.6623 15.8569 13.0133 16.7105 13.6035 17.3593H10.4548V17.3593ZM17.752 3.83452C17.752 6.57104 17.1236 9.13558 15.9826 11.0556C14.8954 12.8851 13.4811 13.8927 12.0002 13.8927C10.5191 13.8927 9.10472 12.8852 8.01745 11.0557C6.87642 9.13563 6.24801 6.57109 6.24801 3.83462V1.17713C6.24801 1.14056 6.27773 1.11089 6.3142 1.11089H17.6857C17.7222 1.11089 17.752 1.14061 17.752 1.17713V3.83452ZM21.1569 3.52463C20.8428 5.45626 19.7941 7.2048 18.2709 8.4086C18.6584 6.98908 18.8629 5.43695 18.8629 3.83452V2.81255H20.5398C20.7244 2.81255 20.8989 2.89332 21.0186 3.03408C21.1366 3.17288 21.1857 3.34712 21.1569 3.52463Z" fill="#FFEA28"/>
<path d="M15.3723 5.70271C15.3069 5.5017 15.133 5.35517 14.9238 5.3247L13.2477 5.08114L12.4981 3.5623C12.4045 3.37273 12.2114 3.25269 12 3.25269C11.7886 3.25269 11.5955 3.37273 11.5019 3.5623L10.7523 5.08114L9.07617 5.3247C8.86692 5.35508 8.69311 5.50166 8.62777 5.70275C8.56247 5.90389 8.61694 6.12458 8.76835 6.27219L9.98124 7.45443L9.69488 9.12379C9.65911 9.3322 9.74475 9.54276 9.91585 9.66707C10.0868 9.79134 10.3137 9.8077 10.5008 9.70935L12 8.92124L13.4992 9.70935C13.5804 9.75206 13.6692 9.7731 13.7575 9.7731C13.8727 9.7731 13.9873 9.73734 14.0841 9.66702C14.2552 9.54271 14.3408 9.33215 14.305 9.12374L14.0187 7.45438L15.2316 6.27214C15.3831 6.12458 15.4375 5.90385 15.3723 5.70271ZM13.0343 6.86272C12.9033 6.99032 12.8436 7.17416 12.8745 7.3544L13.0199 8.20237L12.2584 7.80201C12.1776 7.75944 12.0887 7.73826 12 7.73826C11.9112 7.73826 11.8224 7.75954 11.7415 7.80201L10.98 8.20237L11.1254 7.3544C11.1564 7.17421 11.0966 6.99036 10.9657 6.86272L10.3497 6.26225L11.201 6.1385C11.3819 6.11225 11.5383 5.99858 11.6192 5.83466L12 5.06319L12.3807 5.83466C12.4617 5.99858 12.618 6.11221 12.7989 6.1385L13.6503 6.26225L13.0343 6.86272Z" fill="#FFEA28"/>
<path d="M15.3723 5.70271C15.3069 5.5017 15.133 5.35517 14.9238 5.3247L13.2477 5.08114L12.4981 3.5623C12.4045 3.37273 12.2114 3.25269 12 3.25269C11.7886 3.25269 11.5955 3.37273 11.5019 3.5623L10.7523 5.08114L9.07617 5.3247C8.86692 5.35508 8.69311 5.50166 8.62777 5.70275C8.56247 5.90389 8.61694 6.12458 8.76835 6.27219L9.98124 7.45443L9.69488 9.12379C9.65911 9.3322 9.74475 9.54276 9.91585 9.66707C10.0868 9.79134 10.3137 9.8077 10.5008 9.70935L12 8.92124L13.4992 9.70935C13.5804 9.75206 13.6692 9.7731 13.7575 9.7731C13.8727 9.7731 13.9873 9.73734 14.0841 9.66702C14.2552 9.54271 14.3408 9.33215 14.305 9.12374L14.0187 7.45438L15.2316 6.27214C15.3831 6.12458 15.4375 5.90385 15.3723 5.70271ZM13.0343 6.86272C12.9033 6.99032 12.8436 7.17416 12.8745 7.3544L13.0199 8.20237L12.2584 7.80201C12.1776 7.75944 12.0887 7.73826 12 7.73826C11.9112 7.73826 11.8224 7.75954 11.7415 7.80201L10.98 8.20237L11.1254 7.3544C11.1564 7.17421 11.0966 6.99036 10.9657 6.86272L10.3497 6.26225L11.201 6.1385C11.3819 6.11225 11.5383 5.99858 11.6192 5.83466L12 5.06319L12.3807 5.83466C12.4617 5.99858 12.618 6.11221 12.7989 6.1385L13.6503 6.26225L13.0343 6.86272Z" fill="#FFEA28"/>
</svg>
