<svg width="32" height="32" xmlns="http://www.w3.org/2000/svg">
 <title/>
 <desc/>

 <g>
  <title>background</title>
  <rect fill="none" id="canvas_background" height="402" width="582" y="-1" x="-1"/>
 </g>
 <g>
  <title>Layer 1</title>
  <path fill="#f2f20c" id="warning" d="m14.3078,6.05449c0.87006,-1.40766 2.282789,-1.40431 3.150789,0l10.78508,17.448991c1.16153,1.87921 0.315441,3.402618 -1.888699,3.402618l-20.943561,0c-2.20463,0 -3.05398,-1.51734 -1.8887,-3.402618l10.78509,-17.448991l0,0zm1.57576,5.85161c-0.55228,0 -1,0.45303 -1,0.997029l0,6.005939c0,0.55064 0.44387,0.99703 1,0.99703c0.55229,0 1,-0.453039 1,-0.99703l0,-6.005939c0,-0.55065 -0.443861,-0.997029 -1,-0.997029l0,0zm0,11.999999c0.55229,0 1,-0.44772 1,-1c0,-0.55229 -0.44771,-1 -1,-1c-0.55228,0 -1,0.44771 -1,1c0,0.55228 0.44772,1 1,1l0,0z"/>
 </g>
</svg>